<?xml version="1.0" encoding="UTF-8"?>
<svg width="231px" height="224px" viewBox="0 0 231 224" version="1.1" xmlns="http://www.w3.org/2000/svg" xmlns:xlink="http://www.w3.org/1999/xlink">
    <!-- Generator: Sketch 52.5 (67469) - http://www.bohemiancoding.com/sketch -->
    <title>2withcdn</title>
    <desc>Created with Sketch.</desc>
    <defs>
        <radialGradient cx="28.8132249%" cy="9.55976411%" fx="28.8132249%" fy="9.55976411%" r="80.2979107%" gradientTransform="translate(0.288132,0.095598),scale(0.994415,1.000000),rotate(58.831895),translate(-0.288132,-0.095598)" id="radialGradient-1">
            <stop stop-color="#023D73" offset="0%"></stop>
            <stop stop-color="#092B4A" offset="100%"></stop>
        </radialGradient>
        <linearGradient x1="-48.6155833%" y1="172.361155%" x2="56.8933116%" y2="42.2960372%" id="linearGradient-2">
            <stop stop-color="#FF2A64" offset="0%"></stop>
            <stop stop-color="#FFAF48" offset="100%"></stop>
        </linearGradient>
    </defs>
    <g id="Page-1" stroke="none" stroke-width="1" fill="none" fill-rule="evenodd">
        <g id="Homepage" transform="translate(-910.000000, -1515.000000)">
            <g id="Group-7" transform="translate(0.000000, 915.000000)">
                <g id="Group-6-Copy-4" transform="translate(750.000000, 405.000000)">
                    <g id="2withcdn" transform="translate(160.000000, 195.000000)">
                        <ellipse id="Oval" fill="url(#radialGradient-1)" cx="111.935621" cy="114.007216" rx="110.42065" ry="109.803922"></ellipse>
                        <path d="M215.448356,137.913725 C215.448356,144.752314 214.46782,143.777255 213.482868,147.686275 C212.899847,150.005333 213.703709,153.018353 214.860918,153.835294 C217.926852,146.000912 220.071478,137.840255 221.252065,129.515922 C219.321912,130.385569 215.448356,132.766118 215.448356,137.913725 Z" id="Path" fill="#A8A8A8"></path>
                        <path d="M40.5552964,176.00251 C41.5358317,173.072941 39.574761,170.13898 40.5552964,168.184471 C41.5358317,166.229961 41.5358317,169.159529 44.4862715,170.13898 C47.4367113,171.118431 46.4517591,165.254902 49.397782,160.366431 C52.343805,155.477961 53.3287572,147.664314 57.2597323,147.664314 C61.1907075,147.664314 70.0331931,148.639373 70.0331931,142.780235 C70.0331931,136.921098 70.0331931,129.103059 72.9792161,126.169098 C75.925239,123.235137 79.8562141,119.334902 80.8279159,116.392157 C81.7996176,113.449412 71.9942639,115.417098 66.0889675,110.528627 C60.1836711,105.640157 59.2119694,105.644549 56.2615296,106.619608 C53.3110899,107.594667 50.3650669,97.8352941 41.5225813,93.9174902 C32.6800956,89.9996863 26.7968834,90.0392157 20.9004207,88.0671373 C15.7327342,86.3541961 9.05891013,85.3923137 4.84525813,87.1535686 C2.62861973,95.932998 1.51006955,104.950912 1.51497132,114.002824 C1.51497132,115.824105 1.56061185,117.633673 1.65189293,119.431529 C3.13594646,121.689098 5.10143403,123.652392 9.11632887,127.148549 C16.9782792,133.987137 19.9243021,130.078118 17.9499809,141.805176 C16.7706883,148.832627 16.651434,159.373804 15.2645507,167.104 C18.4389104,172.804748 22.1163926,178.213731 26.2536138,183.267137 C26.8247473,182.238237 27.6985896,181.40759 28.7579541,180.886588 C32.6845124,178.936471 39.5703442,178.936471 40.5552964,176.00251 Z" id="Path" fill="#5BA8D3"></path>
                        <path d="M213.482868,86.1126275 C202.674895,86.1126275 203.65543,82.2036078 201.694359,71.456 C199.733289,60.7083922 193.832409,55.8243137 184.027055,50.9358431 C174.221702,46.0473725 173.219082,49.9607843 166.359751,49.9607843 C159.500421,49.9607843 163.413728,48.9857255 156.532314,44.0972549 C149.650899,39.2087843 152.601338,40.1882353 147.698662,39.2131765 C142.795985,38.2381176 131.979178,43.1221961 130.994226,40.1882353 C130.009273,37.2542745 135.905736,33.3496471 140.821663,26.5110588 C145.737591,19.6724706 148.683614,23.5814902 152.610172,23.5814902 C156.53673,23.5814902 167.34912,25.536 172.260631,32.3658039 C175.639503,37.0654118 180.873442,34.3818039 183.497036,30.3410196 C170.267014,19.1383887 154.557878,11.2095402 137.654799,7.20313725 C132.796291,12.9876078 132.155851,18.7720784 127.999618,24.5609412 C123.088107,31.3995294 123.088107,28.4699608 124.068642,33.3452549 C125.049178,38.220549 129.965105,43.1221961 128.971319,44.1016471 C127.977533,45.081098 123.074857,48.9857255 118.163346,52.8859608 C113.251836,56.7861961 111.286348,72.4266667 110.301396,79.2652549 C109.316444,86.1038431 116.197859,90.0128627 121.109369,95.8763922 C126.02088,101.739922 122.089904,99.7854118 127.005832,97.830902 C131.921759,95.8763922 132.902294,97.830902 138.79434,97.830902 L148.621778,97.830902 C148.621778,97.830902 154.518241,96.8558431 154.518241,99.7854118 C154.518241,102.71498 150.587266,103.694431 149.60673,105.648941 C148.626195,107.603451 152.552753,109.557961 158.440382,112.487529 C164.328011,115.417098 163.351893,129.098667 161.386405,132.028235 C159.420918,134.957804 160.40587,143.750902 166.297916,153.523451 C172.189962,163.296 169.243939,170.134588 170.228891,171.092078 C171.213843,172.049569 172.194379,166.208 182.0174,166.208 C191.840421,166.208 190.851052,162.29898 192.825373,154.485333 C194.799694,146.671686 198.721836,147.646745 195.771396,140.808157 C192.820956,133.969569 204.605048,132.023843 207.559904,130.060549 C210.514761,128.097255 209.953824,112.377725 218.79631,106.518588 C221.159312,104.950588 219.653174,99.4911373 221.146061,97.888 C220.551833,93.8634097 219.73197,89.8749733 218.690306,85.9413333 C217.188585,86.0511373 215.452772,86.1126275 213.482868,86.1126275 Z" id="Path" fill="#5BA8D3"></path>
                        <path d="M28.0159273,131.764706 C28.0159273,71.1221961 77.4534608,21.9607843 138.436577,21.9607843 C154.983246,21.9440533 171.320444,25.6403409 186.231052,32.7742745 C165.924097,14.3566243 139.420196,4.16430909 111.935621,4.20329412 C50.9525048,4.20329412 1.51497132,53.3647059 1.51497132,114.007216 C1.5043864,156.241628 25.854215,194.738866 64.1411472,213.019608 C41.0966448,192.225855 27.9734402,162.708396 28.0159273,131.764706 Z" id="Path" fill="#FFFFFF" opacity="0.1"></path>
                        <path d="M178.05109,31.0964706 C179.437678,31.5986355 180.791797,32.1853704 182.105736,32.8533333" id="Path" stroke="#FD8D32" stroke-width="2.2" stroke-linecap="round" stroke-linejoin="round"></path>
                        <path d="M188.523384,37.0829804 C200.921415,47.6768627 201.950535,65.4870588 201.33218,75.8613333" id="Path" stroke="#FD8D32" stroke-width="2.2" stroke-linecap="round" stroke-linejoin="round" stroke-dasharray="7.700000000000001"></path>
                        <path d="M200.996501,79.6912941 C200.696157,82.4012549 200.360478,84.0351373 200.360478,84.0351373 C199.008929,83.3763137 197.673576,82.7584837 196.354417,82.1816471" id="Path" stroke="#FD8D32" stroke-width="2.2" stroke-linecap="round" stroke-linejoin="round"></path>
                        <path d="M187.715105,78.9138824 C154.328317,68.2233725 133.873996,85.1068235 124.947591,95.5601569" id="Path" stroke="#FD8D32" stroke-width="2.2" stroke-linecap="round" stroke-linejoin="round" stroke-dasharray="9.195999622344971"></path>
                        <path d="M122.111989,99.1661176 C121.237746,100.343835 120.431125,101.569737 119.695985,102.837961 L119.536979,98.4458039" id="Path" stroke="#FD8D32" stroke-width="2.2" stroke-linecap="round" stroke-linejoin="round"></path>
                        <path d="M119.254302,90.3247059 L118.18543,60.7127843 C132.230937,34.6101961 158.422715,32.0627451 171.867533,32.6688627" id="Path" stroke="#FD8D32" stroke-width="2.2" stroke-linecap="round" stroke-linejoin="round" stroke-dasharray="8.144400310516358"></path>
                        <path d="M175.939847,32.9675294 C178.69153,33.2486275 180.308088,33.5912157 180.308088,33.5912157 C178.844739,33.7532799 177.391042,33.9922547 175.953098,34.3071373" id="Path" stroke="#FD8D32" stroke-width="2.2" stroke-linecap="round" stroke-linejoin="round"></path>
                        <path d="M168.325239,36.736 C143.20675,47.3035294 128.242543,79.7791373 122.460918,94.9232941" id="Path" stroke="#FD8D32" stroke-width="2.2" stroke-linecap="round" stroke-linejoin="round" stroke-dasharray="7.990399932861329"></path>
                        <path d="M121.082868,98.6698039 C120.155335,101.305098 119.700402,102.837961 119.700402,102.837961 C118.228126,102.512941 116.779407,102.249412 115.354245,102.047373" id="Path" stroke="#FD8D32" stroke-width="2.2" stroke-linecap="round" stroke-linejoin="round"></path>
                        <path d="M106.829771,101.507137 C85.8542639,101.946353 74.3395985,116.234039 69.0526577,125.505882" id="Path" stroke="#FD8D32" stroke-width="2.2" stroke-linecap="round" stroke-linejoin="round" stroke-dasharray="8.514000272750856"></path>
                        <path d="M67.0827533,129.278745 C66.441964,130.597621 65.875729,131.951048 65.3866922,133.332706 C64.0358317,133.917712 62.7358185,134.612566 61.4998853,135.410196" id="Path" stroke="#FD8D32" stroke-width="2.2" stroke-linecap="round" stroke-linejoin="round"></path>
                        <path d="M54.3269598,141.229804 C46.6372658,149.179608 39.0447419,163.919686 46.8183556,188.911059" id="Path" stroke="#FD8D32" stroke-width="2.2" stroke-linecap="round" stroke-linejoin="round" stroke-dasharray="9.244400310516358"></path>
                        <path d="M48.2935755,193.285647 C48.7823709,194.623791 49.3138623,195.988288 49.8880497,197.379137" id="Path" stroke="#FD8D32" stroke-width="2.2" stroke-linecap="round" stroke-linejoin="round"></path>
                        <g id="Group" transform="translate(52.443595, 102.776471)">
                            <g id="Group-35" transform="translate(0.556405, 14.223529)">
                                <g id="Group" transform="translate(0.000000, 7.000000)">
                                    <path d="M23.0823327,6.25882353 C23.3049355,6.33847051 23.4533589,6.54843393 23.4533589,6.78368627 C23.4533589,7.01893862 23.3049355,7.22890204 23.0823327,7.30854902 L12.8794646,13.2028235 C12.3064366,13.4930489 11.6283436,13.4930489 11.0553155,13.2028235 L0.795028681,7.30854902 C0.568008919,7.23308399 0.414946844,7.02171746 0.414946844,6.78368627 C0.414946844,6.54565509 0.568008919,6.33428856 0.795028681,6.25882353 L10.9978967,0.36454902 C11.5709248,0.0743236457 12.2490178,0.0743236457 12.8220459,0.36454902 L23.0823327,6.25882353 Z" id="Path" fill="#FFBA00"></path>
                                    <path d="M23.0911663,7.30854902 L12.8882983,13.2028235 C12.3152702,13.4930489 11.6371772,13.4930489 11.0641491,13.2028235 L0.795028681,7.30854902 C0.579438263,7.21387881 0.432364371,7.01047024 0.410764818,6.77709804 L0.384263862,13.9171765 C0.405863415,14.1505487 0.552937307,14.3539572 0.768527725,14.4486275 L11.042065,20.3472941 C11.6150931,20.6375195 12.2931861,20.6375195 12.8662141,20.3472941 L23.0690822,14.4530196 C23.2798806,14.3589039 23.4233511,14.1591671 23.4445124,13.9303529 L23.4710134,6.79027451 C23.4474896,7.01844757 23.3023975,7.21641552 23.0911663,7.30854902 Z" id="Path" fill="#C77400"></path>
                                    <path d="M9.24441683,17.2216471 L3.94422562,14.1778824 C3.6735378,13.9899624 3.50941168,13.6847608 3.50254302,13.356549 C3.50254302,13.0403137 3.69688337,12.8953725 3.94422562,13.0315294 L9.24441683,16.0752941 C9.51510465,16.2632141 9.67923077,16.5684157 9.68609943,16.8966275 C9.67726577,17.2128627 9.48292543,17.3578039 9.24441683,17.2216471 Z" id="Path" fill="#FFBA00"></path>
                                    <path d="M2.78701721,12.9436863 C2.78701721,13.2599216 2.59267686,13.4048627 2.34533461,13.2687059 C2.07464679,13.0807859 1.91052067,12.7755843 1.90365201,12.4473725 C1.90365201,12.1311373 2.09799235,11.9861961 2.34533461,12.1223529 C2.61602243,12.3102729 2.78014855,12.6154745 2.78701721,12.9436863 Z" id="Path" fill="#FFBA00"></path>
                                </g>
                                <g id="Group-Copy-2">
                                    <path d="M23.0823327,6.25882353 C23.3049355,6.33847051 23.4533589,6.54843393 23.4533589,6.78368627 C23.4533589,7.01893862 23.3049355,7.22890204 23.0823327,7.30854902 L12.8794646,13.2028235 C12.3064366,13.4930489 11.6283436,13.4930489 11.0553155,13.2028235 L0.795028681,7.30854902 C0.568008919,7.23308399 0.414946844,7.02171746 0.414946844,6.78368627 C0.414946844,6.54565509 0.568008919,6.33428856 0.795028681,6.25882353 L10.9978967,0.36454902 C11.5709248,0.0743236457 12.2490178,0.0743236457 12.8220459,0.36454902 L23.0823327,6.25882353 Z" id="Path" fill="#FFBA00"></path>
                                    <path d="M23.0911663,7.30854902 L12.8882983,13.2028235 C12.3152702,13.4930489 11.6371772,13.4930489 11.0641491,13.2028235 L0.795028681,7.30854902 C0.579438263,7.21387881 0.432364371,7.01047024 0.410764818,6.77709804 L0.384263862,11.9171765 C0.405863415,12.1505487 0.552937307,12.3539572 0.768527725,12.4486275 L11.042065,18.3472941 C11.6150931,18.6375195 12.2931861,18.6375195 12.8662141,18.3472941 L23.0690822,12.4530196 C23.2798806,12.3589039 23.4233511,12.1591671 23.4445124,11.9303529 L23.4710134,6.79027451 C23.4474896,7.01844757 23.3023975,7.21641552 23.0911663,7.30854902 Z" id="Path" fill="#C77400"></path>
                                    <path d="M9.24441683,16.2216471 L3.94422562,13.1778824 C3.6735378,12.9899624 3.50941168,12.6847608 3.50254302,12.356549 C3.50254302,12.0403137 3.69688337,11.8953725 3.94422562,12.0315294 L9.24441683,15.0752941 C9.51510465,15.2632141 9.67923077,15.5684157 9.68609943,15.8966275 C9.67726577,16.2128627 9.48292543,16.3578039 9.24441683,16.2216471 Z" id="Path" fill="#FFBA00"></path>
                                    <path d="M2.78701721,11.9436863 C2.78701721,12.2599216 2.59267686,12.4048627 2.34533461,12.2687059 C2.07464679,12.0807859 1.91052067,11.7755843 1.90365201,11.4473725 C1.90365201,11.1311373 2.09799235,10.9861961 2.34533461,11.1223529 C2.61602243,11.3102729 2.78014855,11.6154745 2.78701721,11.9436863 Z" id="Path" fill="#FFBA00"></path>
                                </g>
                            </g>
                            <path d="M19.7405927,11.8588235 C21.6455537,8.57485671 20.9050416,4.40489067 17.98422,1.96835129 C15.0633983,-0.46818809 10.8051294,-0.46818809 7.88430775,1.96835129 C4.96348612,4.40489067 4.22297398,8.57485671 6.12793499,11.8588235 L6.25602294,12.0564706 C6.33994264,12.1882353 6.41944551,12.32 6.51219885,12.4473725 L11.7682218,20.5421176 C12.0084259,20.8990283 12.4118414,21.1132631 12.8437189,21.1132631 C13.2755964,21.1132631 13.679012,20.8990283 13.9192161,20.5421176 L19.276826,12.5747451 C19.4152199,12.3873464 19.5462524,12.1940915 19.6699235,11.9949804 L19.7405927,11.8588235 Z" id="Path" fill="#FD8D32"></path>
                            <ellipse id="Oval" fill="#FFFFFF" cx="12.9342639" cy="7.94980392" rx="3.93097514" ry="3.90901961"></ellipse>
                        </g>
                        <g id="Group" transform="translate(168.722753, 0.000000)">
                            <g id="Group-35" transform="translate(0.277247, 14.000000)">
                                <g id="Group" transform="translate(0.000000, 7.000000)">
                                    <path d="M23.0823327,6.25882353 C23.3049355,6.33847051 23.4533589,6.54843393 23.4533589,6.78368627 C23.4533589,7.01893862 23.3049355,7.22890204 23.0823327,7.30854902 L12.8794646,13.2028235 C12.3064366,13.4930489 11.6283436,13.4930489 11.0553155,13.2028235 L0.795028681,7.30854902 C0.568008919,7.23308399 0.414946844,7.02171746 0.414946844,6.78368627 C0.414946844,6.54565509 0.568008919,6.33428856 0.795028681,6.25882353 L10.9978967,0.36454902 C11.5709248,0.0743236457 12.2490178,0.0743236457 12.8220459,0.36454902 L23.0823327,6.25882353 Z" id="Path" fill="#FFBA00"></path>
                                    <path d="M23.0911663,7.30854902 L12.8882983,13.2028235 C12.3152702,13.4930489 11.6371772,13.4930489 11.0641491,13.2028235 L0.795028681,7.30854902 C0.579438263,7.21387881 0.432364371,7.01047024 0.410764818,6.77709804 L0.384263862,13.9171765 C0.405863415,14.1505487 0.552937307,14.3539572 0.768527725,14.4486275 L11.042065,20.3472941 C11.6150931,20.6375195 12.2931861,20.6375195 12.8662141,20.3472941 L23.0690822,14.4530196 C23.2798806,14.3589039 23.4233511,14.1591671 23.4445124,13.9303529 L23.4710134,6.79027451 C23.4474896,7.01844757 23.3023975,7.21641552 23.0911663,7.30854902 Z" id="Path" fill="#C77400"></path>
                                    <path d="M9.24441683,17.2216471 L3.94422562,14.1778824 C3.6735378,13.9899624 3.50941168,13.6847608 3.50254302,13.356549 C3.50254302,13.0403137 3.69688337,12.8953725 3.94422562,13.0315294 L9.24441683,16.0752941 C9.51510465,16.2632141 9.67923077,16.5684157 9.68609943,16.8966275 C9.67726577,17.2128627 9.48292543,17.3578039 9.24441683,17.2216471 Z" id="Path" fill="#FFBA00"></path>
                                    <path d="M2.78701721,12.9436863 C2.78701721,13.2599216 2.59267686,13.4048627 2.34533461,13.2687059 C2.07464679,13.0807859 1.91052067,12.7755843 1.90365201,12.4473725 C1.90365201,12.1311373 2.09799235,11.9861961 2.34533461,12.1223529 C2.61602243,12.3102729 2.78014855,12.6154745 2.78701721,12.9436863 Z" id="Path" fill="#FFBA00"></path>
                                </g>
                                <g id="Group-Copy-2">
                                    <path d="M23.0823327,6.25882353 C23.3049355,6.33847051 23.4533589,6.54843393 23.4533589,6.78368627 C23.4533589,7.01893862 23.3049355,7.22890204 23.0823327,7.30854902 L12.8794646,13.2028235 C12.3064366,13.4930489 11.6283436,13.4930489 11.0553155,13.2028235 L0.795028681,7.30854902 C0.568008919,7.23308399 0.414946844,7.02171746 0.414946844,6.78368627 C0.414946844,6.54565509 0.568008919,6.33428856 0.795028681,6.25882353 L10.9978967,0.36454902 C11.5709248,0.0743236457 12.2490178,0.0743236457 12.8220459,0.36454902 L23.0823327,6.25882353 Z" id="Path" fill="#FFBA00"></path>
                                    <path d="M23.0911663,7.30854902 L12.8882983,13.2028235 C12.3152702,13.4930489 11.6371772,13.4930489 11.0641491,13.2028235 L0.795028681,7.30854902 C0.579438263,7.21387881 0.432364371,7.01047024 0.410764818,6.77709804 L0.384263862,11.9171765 C0.405863415,12.1505487 0.552937307,12.3539572 0.768527725,12.4486275 L11.042065,18.3472941 C11.6150931,18.6375195 12.2931861,18.6375195 12.8662141,18.3472941 L23.0690822,12.4530196 C23.2798806,12.3589039 23.4233511,12.1591671 23.4445124,11.9303529 L23.4710134,6.79027451 C23.4474896,7.01844757 23.3023975,7.21641552 23.0911663,7.30854902 Z" id="Path" fill="#C77400"></path>
                                    <path d="M9.24441683,16.2216471 L3.94422562,13.1778824 C3.6735378,12.9899624 3.50941168,12.6847608 3.50254302,12.356549 C3.50254302,12.0403137 3.69688337,11.8953725 3.94422562,12.0315294 L9.24441683,15.0752941 C9.51510465,15.2632141 9.67923077,15.5684157 9.68609943,15.8966275 C9.67726577,16.2128627 9.48292543,16.3578039 9.24441683,16.2216471 Z" id="Path" fill="#FFBA00"></path>
                                    <path d="M2.78701721,11.9436863 C2.78701721,12.2599216 2.59267686,12.4048627 2.34533461,12.2687059 C2.07464679,12.0807859 1.91052067,11.7755843 1.90365201,11.4473725 C1.90365201,11.1311373 2.09799235,10.9861961 2.34533461,11.1223529 C2.61602243,11.3102729 2.78014855,11.6154745 2.78701721,11.9436863 Z" id="Path" fill="#FFBA00"></path>
                                </g>
                            </g>
                            <path d="M18.3828298,11.7182745 C20.2877908,8.43430769 19.5472787,4.26434165 16.6264571,1.82780227 C13.7056354,-0.60873711 9.44736648,-0.60873711 6.52654484,1.82780227 C3.60572321,4.26434165 2.86521107,8.43430769 4.77017208,11.7182745 L4.89826004,11.9159216 C4.98217973,12.0476863 5.0616826,12.179451 5.15443595,12.3068235 L10.4104589,20.4015686 C10.650663,20.7584792 11.0540785,20.9727141 11.485956,20.9727141 C11.9178335,20.9727141 12.3212491,20.7584792 12.5614532,20.4015686 L17.9190631,12.4341961 C18.057457,12.2467974 18.1884895,12.0535425 18.3121606,11.8544314 L18.3828298,11.7182745 Z" id="Path" fill="#FD8D32"></path>
                            <ellipse id="Oval" fill="#FFFFFF" cx="11.576501" cy="7.81364706" rx="3.93097514" ry="3.90901961"></ellipse>
                        </g>
                        <g id="Group-35" transform="translate(106.000000, 42.000000)">
                            <g id="Group" transform="translate(0.000000, 7.000000)">
                                <path d="M23.0823327,6.25882353 C23.3049355,6.33847051 23.4533589,6.54843393 23.4533589,6.78368627 C23.4533589,7.01893862 23.3049355,7.22890204 23.0823327,7.30854902 L12.8794646,13.2028235 C12.3064366,13.4930489 11.6283436,13.4930489 11.0553155,13.2028235 L0.795028681,7.30854902 C0.568008919,7.23308399 0.414946844,7.02171746 0.414946844,6.78368627 C0.414946844,6.54565509 0.568008919,6.33428856 0.795028681,6.25882353 L10.9978967,0.36454902 C11.5709248,0.0743236457 12.2490178,0.0743236457 12.8220459,0.36454902 L23.0823327,6.25882353 Z" id="Path" fill="#FFBA00"></path>
                                <path d="M23.0911663,7.30854902 L12.8882983,13.2028235 C12.3152702,13.4930489 11.6371772,13.4930489 11.0641491,13.2028235 L0.795028681,7.30854902 C0.579438263,7.21387881 0.432364371,7.01047024 0.410764818,6.77709804 L0.384263862,13.9171765 C0.405863415,14.1505487 0.552937307,14.3539572 0.768527725,14.4486275 L11.042065,20.3472941 C11.6150931,20.6375195 12.2931861,20.6375195 12.8662141,20.3472941 L23.0690822,14.4530196 C23.2798806,14.3589039 23.4233511,14.1591671 23.4445124,13.9303529 L23.4710134,6.79027451 C23.4474896,7.01844757 23.3023975,7.21641552 23.0911663,7.30854902 Z" id="Path" fill="#C77400"></path>
                                <path d="M9.24441683,17.2216471 L3.94422562,14.1778824 C3.6735378,13.9899624 3.50941168,13.6847608 3.50254302,13.356549 C3.50254302,13.0403137 3.69688337,12.8953725 3.94422562,13.0315294 L9.24441683,16.0752941 C9.51510465,16.2632141 9.67923077,16.5684157 9.68609943,16.8966275 C9.67726577,17.2128627 9.48292543,17.3578039 9.24441683,17.2216471 Z" id="Path" fill="#FFBA00"></path>
                                <path d="M2.78701721,12.9436863 C2.78701721,13.2599216 2.59267686,13.4048627 2.34533461,13.2687059 C2.07464679,13.0807859 1.91052067,12.7755843 1.90365201,12.4473725 C1.90365201,12.1311373 2.09799235,11.9861961 2.34533461,12.1223529 C2.61602243,12.3102729 2.78014855,12.6154745 2.78701721,12.9436863 Z" id="Path" fill="#FFBA00"></path>
                            </g>
                            <g id="Group-Copy-2">
                                <path d="M23.0823327,6.25882353 C23.3049355,6.33847051 23.4533589,6.54843393 23.4533589,6.78368627 C23.4533589,7.01893862 23.3049355,7.22890204 23.0823327,7.30854902 L12.8794646,13.2028235 C12.3064366,13.4930489 11.6283436,13.4930489 11.0553155,13.2028235 L0.795028681,7.30854902 C0.568008919,7.23308399 0.414946844,7.02171746 0.414946844,6.78368627 C0.414946844,6.54565509 0.568008919,6.33428856 0.795028681,6.25882353 L10.9978967,0.36454902 C11.5709248,0.0743236457 12.2490178,0.0743236457 12.8220459,0.36454902 L23.0823327,6.25882353 Z" id="Path" fill="#FFBA00"></path>
                                <path d="M23.0911663,7.30854902 L12.8882983,13.2028235 C12.3152702,13.4930489 11.6371772,13.4930489 11.0641491,13.2028235 L0.795028681,7.30854902 C0.579438263,7.21387881 0.432364371,7.01047024 0.410764818,6.77709804 L0.384263862,11.9171765 C0.405863415,12.1505487 0.552937307,12.3539572 0.768527725,12.4486275 L11.042065,18.3472941 C11.6150931,18.6375195 12.2931861,18.6375195 12.8662141,18.3472941 L23.0690822,12.4530196 C23.2798806,12.3589039 23.4233511,12.1591671 23.4445124,11.9303529 L23.4710134,6.79027451 C23.4474896,7.01844757 23.3023975,7.21641552 23.0911663,7.30854902 Z" id="Path" fill="#C77400"></path>
                                <path d="M9.24441683,16.2216471 L3.94422562,13.1778824 C3.6735378,12.9899624 3.50941168,12.6847608 3.50254302,12.356549 C3.50254302,12.0403137 3.69688337,11.8953725 3.94422562,12.0315294 L9.24441683,15.0752941 C9.51510465,15.2632141 9.67923077,15.5684157 9.68609943,15.8966275 C9.67726577,16.2128627 9.48292543,16.3578039 9.24441683,16.2216471 Z" id="Path" fill="#FFBA00"></path>
                                <path d="M2.78701721,11.9436863 C2.78701721,12.2599216 2.59267686,12.4048627 2.34533461,12.2687059 C2.07464679,12.0807859 1.91052067,11.7755843 1.90365201,11.4473725 C1.90365201,11.1311373 2.09799235,10.9861961 2.34533461,11.1223529 C2.61602243,11.3102729 2.78014855,11.6154745 2.78701721,11.9436863 Z" id="Path" fill="#FFBA00"></path>
                            </g>
                        </g>
                        <g id="Group-35" transform="translate(108.000000, 77.000000)">
                            <g id="Group" transform="translate(0.000000, 7.000000)">
                                <path d="M23.0823327,6.25882353 C23.3049355,6.33847051 23.4533589,6.54843393 23.4533589,6.78368627 C23.4533589,7.01893862 23.3049355,7.22890204 23.0823327,7.30854902 L12.8794646,13.2028235 C12.3064366,13.4930489 11.6283436,13.4930489 11.0553155,13.2028235 L0.795028681,7.30854902 C0.568008919,7.23308399 0.414946844,7.02171746 0.414946844,6.78368627 C0.414946844,6.54565509 0.568008919,6.33428856 0.795028681,6.25882353 L10.9978967,0.36454902 C11.5709248,0.0743236457 12.2490178,0.0743236457 12.8220459,0.36454902 L23.0823327,6.25882353 Z" id="Path" fill="#FFBA00"></path>
                                <path d="M23.0911663,7.30854902 L12.8882983,13.2028235 C12.3152702,13.4930489 11.6371772,13.4930489 11.0641491,13.2028235 L0.795028681,7.30854902 C0.579438263,7.21387881 0.432364371,7.01047024 0.410764818,6.77709804 L0.384263862,13.9171765 C0.405863415,14.1505487 0.552937307,14.3539572 0.768527725,14.4486275 L11.042065,20.3472941 C11.6150931,20.6375195 12.2931861,20.6375195 12.8662141,20.3472941 L23.0690822,14.4530196 C23.2798806,14.3589039 23.4233511,14.1591671 23.4445124,13.9303529 L23.4710134,6.79027451 C23.4474896,7.01844757 23.3023975,7.21641552 23.0911663,7.30854902 Z" id="Path" fill="#C77400"></path>
                                <path d="M9.24441683,17.2216471 L3.94422562,14.1778824 C3.6735378,13.9899624 3.50941168,13.6847608 3.50254302,13.356549 C3.50254302,13.0403137 3.69688337,12.8953725 3.94422562,13.0315294 L9.24441683,16.0752941 C9.51510465,16.2632141 9.67923077,16.5684157 9.68609943,16.8966275 C9.67726577,17.2128627 9.48292543,17.3578039 9.24441683,17.2216471 Z" id="Path" fill="#FFBA00"></path>
                                <path d="M2.78701721,12.9436863 C2.78701721,13.2599216 2.59267686,13.4048627 2.34533461,13.2687059 C2.07464679,13.0807859 1.91052067,12.7755843 1.90365201,12.4473725 C1.90365201,12.1311373 2.09799235,11.9861961 2.34533461,12.1223529 C2.61602243,12.3102729 2.78014855,12.6154745 2.78701721,12.9436863 Z" id="Path" fill="#FFBA00"></path>
                            </g>
                            <g id="Group-Copy-2">
                                <path d="M23.0823327,6.25882353 C23.3049355,6.33847051 23.4533589,6.54843393 23.4533589,6.78368627 C23.4533589,7.01893862 23.3049355,7.22890204 23.0823327,7.30854902 L12.8794646,13.2028235 C12.3064366,13.4930489 11.6283436,13.4930489 11.0553155,13.2028235 L0.795028681,7.30854902 C0.568008919,7.23308399 0.414946844,7.02171746 0.414946844,6.78368627 C0.414946844,6.54565509 0.568008919,6.33428856 0.795028681,6.25882353 L10.9978967,0.36454902 C11.5709248,0.0743236457 12.2490178,0.0743236457 12.8220459,0.36454902 L23.0823327,6.25882353 Z" id="Path" fill="#FFBA00"></path>
                                <path d="M23.0911663,7.30854902 L12.8882983,13.2028235 C12.3152702,13.4930489 11.6371772,13.4930489 11.0641491,13.2028235 L0.795028681,7.30854902 C0.579438263,7.21387881 0.432364371,7.01047024 0.410764818,6.77709804 L0.384263862,11.9171765 C0.405863415,12.1505487 0.552937307,12.3539572 0.768527725,12.4486275 L11.042065,18.3472941 C11.6150931,18.6375195 12.2931861,18.6375195 12.8662141,18.3472941 L23.0690822,12.4530196 C23.2798806,12.3589039 23.4233511,12.1591671 23.4445124,11.9303529 L23.4710134,6.79027451 C23.4474896,7.01844757 23.3023975,7.21641552 23.0911663,7.30854902 Z" id="Path" fill="#C77400"></path>
                                <path d="M9.24441683,16.2216471 L3.94422562,13.1778824 C3.6735378,12.9899624 3.50941168,12.6847608 3.50254302,12.356549 C3.50254302,12.0403137 3.69688337,11.8953725 3.94422562,12.0315294 L9.24441683,15.0752941 C9.51510465,15.2632141 9.67923077,15.5684157 9.68609943,15.8966275 C9.67726577,16.2128627 9.48292543,16.3578039 9.24441683,16.2216471 Z" id="Path" fill="#FFBA00"></path>
                                <path d="M2.78701721,11.9436863 C2.78701721,12.2599216 2.59267686,12.4048627 2.34533461,12.2687059 C2.07464679,12.0807859 1.91052067,11.7755843 1.90365201,11.4473725 C1.90365201,11.1311373 2.09799235,10.9861961 2.34533461,11.1223529 C2.61602243,11.3102729 2.78014855,11.6154745 2.78701721,11.9436863 Z" id="Path" fill="#FFBA00"></path>
                            </g>
                        </g>
                        <g id="Group-35" transform="translate(187.000000, 64.000000)">
                            <g id="Group" transform="translate(0.000000, 7.000000)">
                                <path d="M23.0823327,6.25882353 C23.3049355,6.33847051 23.4533589,6.54843393 23.4533589,6.78368627 C23.4533589,7.01893862 23.3049355,7.22890204 23.0823327,7.30854902 L12.8794646,13.2028235 C12.3064366,13.4930489 11.6283436,13.4930489 11.0553155,13.2028235 L0.795028681,7.30854902 C0.568008919,7.23308399 0.414946844,7.02171746 0.414946844,6.78368627 C0.414946844,6.54565509 0.568008919,6.33428856 0.795028681,6.25882353 L10.9978967,0.36454902 C11.5709248,0.0743236457 12.2490178,0.0743236457 12.8220459,0.36454902 L23.0823327,6.25882353 Z" id="Path" fill="#FFBA00"></path>
                                <path d="M23.0911663,7.30854902 L12.8882983,13.2028235 C12.3152702,13.4930489 11.6371772,13.4930489 11.0641491,13.2028235 L0.795028681,7.30854902 C0.579438263,7.21387881 0.432364371,7.01047024 0.410764818,6.77709804 L0.384263862,13.9171765 C0.405863415,14.1505487 0.552937307,14.3539572 0.768527725,14.4486275 L11.042065,20.3472941 C11.6150931,20.6375195 12.2931861,20.6375195 12.8662141,20.3472941 L23.0690822,14.4530196 C23.2798806,14.3589039 23.4233511,14.1591671 23.4445124,13.9303529 L23.4710134,6.79027451 C23.4474896,7.01844757 23.3023975,7.21641552 23.0911663,7.30854902 Z" id="Path" fill="#C77400"></path>
                                <path d="M9.24441683,17.2216471 L3.94422562,14.1778824 C3.6735378,13.9899624 3.50941168,13.6847608 3.50254302,13.356549 C3.50254302,13.0403137 3.69688337,12.8953725 3.94422562,13.0315294 L9.24441683,16.0752941 C9.51510465,16.2632141 9.67923077,16.5684157 9.68609943,16.8966275 C9.67726577,17.2128627 9.48292543,17.3578039 9.24441683,17.2216471 Z" id="Path" fill="#FFBA00"></path>
                                <path d="M2.78701721,12.9436863 C2.78701721,13.2599216 2.59267686,13.4048627 2.34533461,13.2687059 C2.07464679,13.0807859 1.91052067,12.7755843 1.90365201,12.4473725 C1.90365201,12.1311373 2.09799235,11.9861961 2.34533461,12.1223529 C2.61602243,12.3102729 2.78014855,12.6154745 2.78701721,12.9436863 Z" id="Path" fill="#FFBA00"></path>
                            </g>
                            <g id="Group-Copy-2">
                                <path d="M23.0823327,6.25882353 C23.3049355,6.33847051 23.4533589,6.54843393 23.4533589,6.78368627 C23.4533589,7.01893862 23.3049355,7.22890204 23.0823327,7.30854902 L12.8794646,13.2028235 C12.3064366,13.4930489 11.6283436,13.4930489 11.0553155,13.2028235 L0.795028681,7.30854902 C0.568008919,7.23308399 0.414946844,7.02171746 0.414946844,6.78368627 C0.414946844,6.54565509 0.568008919,6.33428856 0.795028681,6.25882353 L10.9978967,0.36454902 C11.5709248,0.0743236457 12.2490178,0.0743236457 12.8220459,0.36454902 L23.0823327,6.25882353 Z" id="Path" fill="#FFBA00"></path>
                                <path d="M23.0911663,7.30854902 L12.8882983,13.2028235 C12.3152702,13.4930489 11.6371772,13.4930489 11.0641491,13.2028235 L0.795028681,7.30854902 C0.579438263,7.21387881 0.432364371,7.01047024 0.410764818,6.77709804 L0.384263862,11.9171765 C0.405863415,12.1505487 0.552937307,12.3539572 0.768527725,12.4486275 L11.042065,18.3472941 C11.6150931,18.6375195 12.2931861,18.6375195 12.8662141,18.3472941 L23.0690822,12.4530196 C23.2798806,12.3589039 23.4233511,12.1591671 23.4445124,11.9303529 L23.4710134,6.79027451 C23.4474896,7.01844757 23.3023975,7.21641552 23.0911663,7.30854902 Z" id="Path" fill="#C77400"></path>
                                <path d="M9.24441683,16.2216471 L3.94422562,13.1778824 C3.6735378,12.9899624 3.50941168,12.6847608 3.50254302,12.356549 C3.50254302,12.0403137 3.69688337,11.8953725 3.94422562,12.0315294 L9.24441683,15.0752941 C9.51510465,15.2632141 9.67923077,15.5684157 9.68609943,15.8966275 C9.67726577,16.2128627 9.48292543,16.3578039 9.24441683,16.2216471 Z" id="Path" fill="#FFBA00"></path>
                                <path d="M2.78701721,11.9436863 C2.78701721,12.2599216 2.59267686,12.4048627 2.34533461,12.2687059 C2.07464679,12.0807859 1.91052067,11.7755843 1.90365201,11.4473725 C1.90365201,11.1311373 2.09799235,10.9861961 2.34533461,11.1223529 C2.61602243,11.3102729 2.78014855,11.6154745 2.78701721,11.9436863 Z" id="Path" fill="#FFBA00"></path>
                            </g>
                        </g>
                        <path d="M204.326788,174.561882 C204.326788,174.561882 187.896195,163.142275 198.642333,155.003608 L211.663136,109.874196 C211.663136,109.874196 213.990803,92.2484706 218.513633,86.2224314 C218.513633,86.2224314 241.781472,117.033412 224.047916,148.006902 L204.326788,174.561882 Z" id="Path" fill="url(#linearGradient-2)"></path>
                        <ellipse id="Oval" fill="#FFFFFF" cx="165.167208" cy="155.653647" rx="1.7667304" ry="1.75686275"></ellipse>
                        <path d="M207.096138,158.381176 C204.940727,164.92549 209.644646,166.287059 209.644646,166.287059 C208.655277,165.096784 210.249751,160.858353 210.249751,160.858353 C220.337782,155.653647 224.043499,147.989333 224.043499,147.989333 C230.266807,137.123137 231.432849,126.283294 230.337476,116.778667 C230.487648,140.004392 207.096138,158.381176 207.096138,158.381176 Z" id="Path" fill="#5BA8D3"></path>
                        <path d="M168.338489,174.561882 C168.338489,174.561882 184.769082,163.142275 174.022945,155.003608 L161.002141,109.869804 C161.002141,109.869804 158.674474,92.2352941 154.147228,86.2180392 C154.147228,86.2180392 130.879388,117.02902 148.612945,148.00251 L168.338489,174.561882 Z" id="Path" fill="url(#linearGradient-2)"></path>
                        <path d="M165.564723,158.381176 C167.720134,164.92549 163.016214,166.287059 163.016214,166.287059 C164.005583,165.096784 162.411109,160.858353 162.411109,160.858353 C152.323078,155.653647 148.617361,147.989333 148.617361,147.989333 C142.394054,137.123137 141.228011,126.283294 142.323384,116.778667 C142.177629,140.004392 165.564723,158.381176 165.564723,158.381176 Z" id="Path" fill="#5BA8D3"></path>
                        <path d="M221.636329,194.950275 L219.692925,183.35498 C216.943441,166.948975 202.674061,154.921177 185.948375,154.911373 C168.864766,154.911806 154.396845,167.437741 152.044818,184.264157 L150.476845,195.494902 C149.695126,201.111745 151.30256,206.798463 154.91265,211.187726 C158.52274,215.576989 163.808902,218.271724 169.500115,218.624 C171.735029,221.623843 178.457438,223.806745 186.407725,223.806745 C194.358011,223.806745 201.133423,221.610667 203.337419,218.588863 C209.001237,218.05849 214.188686,215.211392 217.658833,210.728645 C221.12898,206.245898 222.569694,200.530717 221.636329,194.950275 Z" id="Path" fill="url(#linearGradient-2)"></path>
                        <ellipse id="Oval" fill="#183D6D" cx="168.135315" cy="186.113255" rx="5.41502868" ry="5.38478431"></ellipse>
                        <ellipse id="Oval" fill="#FFFFFF" cx="169.27044" cy="184.672627" rx="1.69606119" ry="1.68658824"></ellipse>
                        <ellipse id="Oval" fill="#183D6D" cx="204.649216" cy="186.113255" rx="5.41502868" ry="5.38478431"></ellipse>
                        <ellipse id="Oval" fill="#FFFFFF" cx="205.788757" cy="184.672627" rx="1.69606119" ry="1.68658824"></ellipse>
                        <path d="M186.390057,201.551686 C184.602777,201.552079 182.945631,200.622329 182.021816,199.100863 L181.425545,198.121412 C181.028863,197.301103 181.085961,196.335305 181.576569,195.566869 C182.067177,194.798432 182.92183,194.336161 183.837132,194.344157 L188.942983,194.344157 C189.858285,194.336161 190.712937,194.798432 191.203545,195.566869 C191.694153,196.335305 191.751251,197.301103 191.35457,198.121412 L190.758298,199.100863 C189.834483,200.622329 188.177337,201.552079 186.390057,201.551686 Z" id="Path" fill="#183D6D"></path>
                        <path d="M193.611568,209.448784 C192.114035,212.028917 189.330786,213.602365 186.33528,213.562271 C183.339774,213.522178 180.60012,211.874808 179.172964,209.255529" id="Path" stroke="#183D6D" stroke-width="1.76" stroke-linecap="round" stroke-linejoin="round"></path>
                        <path d="M0,219.80549 L65.3690249,219.80549 L65.3690249,221.364706 C65.3690249,221.881385 64.9478215,222.300235 64.4282409,222.300235 L0.940783939,222.300235 C0.421203317,222.300235 6.36302746e-17,221.881385 0,221.364706 L0,219.827451 L0,219.80549 Z" id="Path" fill="#183D6D"></path>
                        <rect id="Rectangle" fill="url(#linearGradient-2)" x="6.47948375" y="171.228235" width="52.4144742" height="31.808" rx="1.474"></rect>
                        <path d="M63.8143021,220.486275 L1.55913958,220.486275 C0.53001912,220.486275 -0.15458891,220.095373 0.030917782,219.607843 L6.26305927,203.602824 C6.38231358,203.295373 7.14642447,203.04502 7.96353728,203.04502 L57.418738,203.04502 C58.2358509,203.04502 58.9955449,203.295373 59.1192161,203.602824 L65.3381071,219.607843 C65.5236138,220.077804 64.8434226,220.486275 63.8143021,220.486275 Z" id="Path" fill="url(#linearGradient-2)"></path>
                        <polygon id="Path" fill="#183D6D" points="58.3021033 212.114824 7.06692161 212.114824 9.6816826 204.323137 55.6873423 204.323137"></polygon>
                        <path d="M42.0481836,218.782118 L23.3208413,218.782118 C22.8791587,218.782118 22.5346463,218.615216 22.5611472,218.413176 L23.1088337,213.933176 C23.1309178,213.753098 23.4886807,213.603765 23.9038623,213.603765 L41.4651625,213.603765 C41.8803442,213.603765 42.2381071,213.748706 42.2601912,213.933176 L42.8078776,218.413176 C42.8432122,218.615216 42.4898662,218.782118 42.0481836,218.782118 Z" id="Path" fill="#183D6D"></path>
                        <rect id="Rectangle" fill="#183D6D" x="8.20204589" y="173.815216" width="48.9649331" height="26.6296471"></rect>
                        <ellipse id="Oval" fill="#FFFFFF" cx="14.5931931" cy="179.876392" rx="1.4089675" ry="1.40109804"></ellipse>
                        <ellipse id="Oval" fill="#FFFFFF" cx="19.4428681" cy="179.876392" rx="1.4089675" ry="1.40109804"></ellipse>
                        <rect id="Rectangle" fill="#FFFFFF" x="22.9277438" y="178.475294" width="19.6283748" height="2.79780392" rx="1.39890196"></rect>
                    </g>
                </g>
            </g>
        </g>
    </g>
</svg>